<?xml version="1.0" encoding="utf-8"?>
<!-- Generator: Adobe Illustrator 19.0.0, SVG Export Plug-In . SVG Version: 6.00 Build 0)  -->
<svg version="1.1" id="Layer_1" xmlns="http://www.w3.org/2000/svg" xmlns:xlink="http://www.w3.org/1999/xlink" x="0px" y="0px"
	 viewBox="-281 373 48 48" style="enable-background:new -281 373 48 48;" xml:space="preserve">
<g id="XMLID_14_">
	<path id="XMLID_19_" d="M-248.8,385.7V384c0-2.7-2.2-4.8-4.9-4.8h-14.8c-2.7,0-4.9,2.2-4.9,4.8v30.8l13-11.3l11.6,11.3v-11.4
		c4.5-0.4,8.1-4.2,8.1-8.9C-240.7,389.9-244.2,386.1-248.8,385.7z M-250.4,411l-9.9-9.7l-11.3,9.7V384c0-1.8,1.5-3.2,3.2-3.2h14.8
		c1.8,0,3.2,1.4,3.2,3.2v1.7c-4.5,0.4-8.1,4.2-8.1,8.9c0,4.6,3.6,8.5,8.1,8.9V411z M-249.6,401.9c-4,0-7.3-3.3-7.3-7.3
		c0-4,3.3-7.3,7.3-7.3s7.3,3.3,7.3,7.3C-242.3,398.6-245.6,401.9-249.6,401.9z"/>
	<rect id="XMLID_18_" x="-255.3" y="393.8" width="11.3" height="1.6"/>
	<polygon id="XMLID_15_" points="-250.4,400.3 -248.8,400.3 -248.8,388.9 -250.4,388.9 -250.4,400.3 	"/>
</g>
</svg>
