<?xml version="1.0" encoding="utf-8"?>
<!-- Generator: Adobe Illustrator 19.0.0, SVG Export Plug-In . SVG Version: 6.00 Build 0)  -->
<svg version="1.1" id="Layer_1" xmlns="http://www.w3.org/2000/svg" xmlns:xlink="http://www.w3.org/1999/xlink" x="0px" y="0px"
	 viewBox="-281 373 48 48" style="enable-background:new -281 373 48 48;" xml:space="preserve">
<g id="XMLID_2_">
	<path id="XMLID_6_" d="M-243.4,383.4h-7.2V382c0-1.6-1.3-2.9-2.9-2.9h-7.2c-1.6,0-2.9,1.3-2.9,2.9v1.4h-7.2v1.4h1.5l1.4,27.3
		c0,1.6,1.3,2.9,2.9,2.9h15.8c1.6,0,2.9-1.3,2.9-2.9l1.4-27.3h1.4L-243.4,383.4L-243.4,383.4z M-262,382c0-0.8,0.6-1.4,1.4-1.4h7.2
		c0.8,0,1.4,0.6,1.4,1.4v1.4h-10V382z M-247.6,412L-247.6,412L-247.6,412c0,0.9-0.6,1.5-1.4,1.5h-15.8c-0.8,0-1.4-0.6-1.4-1.4v0l0,0
		l-1.4-27.2h21.5L-247.6,412z"/>
	<rect id="XMLID_5_" x="-257.7" y="387.7" width="1.4" height="23"/>
	<polygon id="XMLID_4_" points="-260.6,410.6 -262,387.7 -263.5,387.8 -262,410.7 	"/>
	<polygon id="XMLID_3_" points="-250.5,387.8 -252,387.7 -253.4,410.6 -252,410.7 	"/>
</g>
</svg>
