<?xml version="1.0" encoding="utf-8"?>
<!-- Generator: Adobe Illustrator 19.0.0, SVG Export Plug-In . SVG Version: 6.00 Build 0)  -->
<svg version="1.1" id="Layer_1" xmlns="http://www.w3.org/2000/svg" xmlns:xlink="http://www.w3.org/1999/xlink" x="0px" y="0px"
	 viewBox="-281 373 48 48" style="enable-background:new -281 373 48 48;" xml:space="preserve">
<g id="XMLID_10_">
	<path id="XMLID_25_" d="M-266.5,414.5h-8.2v-8.2l21.5-21.5l8.2,8.2L-266.5,414.5z M-273.1,412.9h5.9l19.9-19.9l-5.9-5.9l-19.9,19.9
		V412.9z M-244.1,392.1l-8.2-8.2l4-4c1-1,2.8-1,3.8,0l4.4,4.4c1,1,1,2.7,0,3.8L-244.1,392.1z M-250,384l5.9,5.9l2.9-2.9
		c0.4-0.4,0.4-1.1,0-1.5l-4.4-4.4c-0.4-0.4-1.1-0.4-1.5,0L-250,384z"/>
</g>
</svg>
